<?xml version="1.0" encoding="iso-8859-1"?>
<!-- Generator: Adobe Illustrator 21.0.2, SVG Export Plug-In . SVG Version: 6.00 Build 0)  -->
<svg version="1.1" id="Layer_1" xmlns="http://www.w3.org/2000/svg" xmlns:xlink="http://www.w3.org/1999/xlink" x="0px" y="0px"
	 viewBox="0 0 100.75 100.749" style="enable-background:new 0 0 100.75 100.749;" xml:space="preserve">
<path d="M93.452,6.664c-0.586-0.585-1.535-0.585-2.121,0L73.229,24.772l-2.256-2.255c-0.281-0.281-0.663-0.439-1.061-0.439l0,0
	c-0.398,0-0.779,0.158-1.061,0.44l-6.014,6.018l-4.578-4.579c-0.281-0.281-0.663-0.439-1.061-0.439s-0.779,0.158-1.061,0.439
	l-6.481,6.481c-0.003,0.003-0.006,0.003-0.009,0.006s-0.003,0.006-0.006,0.009l-8.533,8.534c-0.005,0.005-0.011,0.006-0.016,0.01
	s-0.006,0.011-0.01,0.016l-8.521,8.521c-0.006,0.006-0.014,0.007-0.019,0.013c-0.005,0.006-0.007,0.013-0.013,0.019l-8.516,8.516
	c-0.007,0.007-0.016,0.008-0.023,0.015s-0.009,0.016-0.015,0.023l-6.765,6.765c-0.281,0.281-0.439,0.663-0.439,1.061
	c0,0.397,0.158,0.779,0.439,1.061l4.579,4.578l-8.102,8.1l-4.58-4.581c-0.586-0.586-1.535-0.586-2.121,0s-0.586,1.535,0,2.121
	l12.262,12.263c0.002,0.002,0.003,0.005,0.005,0.008s0.005,0.003,0.008,0.005l5.833,5.834c0.293,0.293,0.677,0.439,1.061,0.439
	s0.768-0.146,1.061-0.439c0.586-0.586,0.586-1.535,0-2.121l-4.781-4.779l8.104-8.101l4.582,4.582
	c0.293,0.293,0.677,0.439,1.061,0.439s0.768-0.146,1.061-0.439l38.923-38.928c0.586-0.586,0.586-1.535,0-2.121l-4.577-4.577
	l6.014-6.025c0.585-0.586,0.584-1.535-0.001-2.121l-2.252-2.25L93.452,8.785C94.038,8.199,94.038,7.249,93.452,6.664z
	 M20.314,84.313l-4.507-4.507l8.102-8.101l4.507,4.507L20.314,84.313z M36.182,79.733l-11.202-11.2
	c-0.003-0.003-0.004-0.008-0.007-0.011s-0.008-0.004-0.011-0.007l-4.57-4.569l4.663-4.663l5.65,5.648
	c0.293,0.293,0.677,0.439,1.061,0.439s0.768-0.146,1.061-0.439c0.585-0.586,0.585-1.536,0-2.121l-5.65-5.648l6.43-6.43l5.646,5.646
	c0.293,0.293,0.677,0.439,1.061,0.439s0.768-0.146,1.061-0.439c0.586-0.586,0.586-1.536,0-2.121l-5.646-5.646l6.43-6.43l5.652,5.647
	c0.293,0.293,0.676,0.439,1.06,0.439c0.384,0,0.768-0.146,1.061-0.44c0.585-0.586,0.585-1.536-0.001-2.121L44.28,40.06l6.432-6.432
	l5.647,5.648c0.292,0.293,0.677,0.439,1.061,0.439s0.768-0.146,1.061-0.439c0.586-0.585,0.586-1.535,0-2.121l-5.647-5.648
	l4.367-4.368l4.571,4.572c0.003,0.003,0.003,0.006,0.006,0.008l6.632,6.631c0.001,0.001,0.002,0.002,0.003,0.003l4.573,4.574
	L36.182,79.733z M69.468,35.167l-4.509-4.51l4.954-4.958l2.249,2.248c0.002,0.002,0.003,0.006,0.005,0.008s0.006,0.003,0.008,0.005
	l2.246,2.245L69.468,35.167z"/>
</svg>
